<svg xmlns="http://www.w3.org/2000/svg" xmlns:xlink="http://www.w3.org/1999/xlink" width="2000" zoomAndPan="magnify" viewBox="0 0 1500 1499.999933" height="2000" preserveAspectRatio="xMidYMid meet" version="1.0"><defs><clipPath id="a2963fcc7d"><path d="M 1 133.75 L 1500 133.75 L 1500 1366 L 1 1366 Z M 1 133.75 " clip-rule="nonzero"/></clipPath></defs><g clip-path="url(#a2963fcc7d)"><path fill="#0061a6" d="M 1450.519531 510.839844 C 1419.472656 437.425781 1375.050781 371.507812 1318.464844 314.953125 C 1261.910156 258.398438 1195.996094 213.636719 1122.578125 182.589844 C 1046.488281 150.394531 965.765625 133.75 882.613281 133.75 L 156.398438 133.75 L 311.160156 403.394531 L 1.078125 403.332031 L 552.683594 1366.152344 L 882.613281 1366.152344 C 965.765625 1366.152344 1046.519531 1350.351562 1122.578125 1318.183594 C 1195.996094 1287.136719 1261.910156 1242.964844 1318.464844 1186.410156 C 1375.019531 1129.855469 1419.472656 1064.0625 1450.519531 990.648438 C 1482.683594 914.558594 1499.015625 833.894531 1499.015625 750.746094 C 1499.015625 667.59375 1482.683594 586.929688 1450.519531 510.839844 Z M 882.613281 1096.507812 L 828.238281 1096.507812 L 828.238281 1304.0625 L 311.347656 403.394531 L 882.613281 403.394531 C 1073.925781 403.394531 1229.558594 558.652344 1229.558594 749.96875 C 1229.527344 941.25 1073.894531 1096.507812 882.613281 1096.507812 Z M 882.613281 1096.507812 " fill-opacity="1" fill-rule="nonzero"/></g></svg>