<svg xmlns="http://www.w3.org/2000/svg" xmlns:xlink="http://www.w3.org/1999/xlink" width="2000" zoomAndPan="magnify" viewBox="0 0 1500 1499.999933" height="2000" preserveAspectRatio="xMidYMid meet" version="1.0"><defs><g/><clipPath id="b5a3926b13"><path d="M 536 398.464844 L 964 398.464844 L 964 750.214844 L 536 750.214844 Z M 536 398.464844 " clip-rule="nonzero"/></clipPath><clipPath id="c323bc2108"><rect x="0" width="882" y="0" height="241"/></clipPath><clipPath id="f32ae96e0f"><rect x="0" width="740" y="0" height="97"/></clipPath></defs><g clip-path="url(#b5a3926b13)"><path fill="#0061a6" d="M 949.988281 506.121094 C 941.125 485.164062 928.441406 466.34375 912.285156 450.199219 C 896.140625 434.050781 877.320312 421.273438 856.363281 412.410156 C 834.640625 403.21875 811.59375 398.464844 787.855469 398.464844 L 580.527344 398.464844 L 624.710938 475.445312 L 536.183594 475.429688 L 693.664062 750.308594 L 787.855469 750.308594 C 811.59375 750.308594 834.648438 745.796875 856.363281 736.613281 C 877.320312 727.75 896.140625 715.136719 912.285156 698.992188 C 928.433594 682.847656 941.125 664.0625 949.988281 643.105469 C 959.171875 621.378906 963.832031 598.351562 963.832031 574.613281 C 963.832031 550.875 959.171875 527.84375 949.988281 506.121094 Z M 787.855469 673.324219 L 772.332031 673.324219 L 772.332031 732.582031 L 624.761719 475.445312 L 787.855469 475.445312 C 842.472656 475.445312 886.90625 519.773438 886.90625 574.390625 C 886.894531 629 842.464844 673.324219 787.855469 673.324219 Z M 787.855469 673.324219 " fill-opacity="1" fill-rule="nonzero"/></g><g transform="matrix(1, 0, 0, 1, 312, 748)"><g clip-path="url(#c323bc2108)"><g fill="#100d1f" fill-opacity="1"><g transform="translate(1.265631, 186.34404)"><g><path d="M 52.390625 -138.984375 C 74.390625 -138.984375 92.054688 -134.015625 105.390625 -124.078125 C 118.722656 -114.148438 125.390625 -96.125 125.390625 -70 C 125.390625 -23.332031 101.992188 0 55.203125 0 L 10.796875 0 L 10.796875 -138.984375 Z M 47.796875 -112.59375 L 47.796875 -26.390625 L 57.390625 -26.390625 C 67.523438 -26.390625 75.023438 -29.585938 79.890625 -35.984375 C 84.753906 -42.390625 87.1875 -53.726562 87.1875 -70 C 87.1875 -81.195312 86.019531 -89.894531 83.6875 -96.09375 C 81.351562 -102.289062 78.019531 -106.585938 73.6875 -108.984375 C 69.351562 -111.390625 63.859375 -112.59375 57.203125 -112.59375 Z M 47.796875 -112.59375 "/></g></g></g><g fill="#100d1f" fill-opacity="1"><g transform="translate(132.045358, 186.34404)"><g><path d="M 71.59375 -109.796875 C 75.0625 -109.796875 78.660156 -109.191406 82.390625 -107.984375 L 76.59375 -73.59375 C 73.125 -74.65625 69.925781 -75.1875 67 -75.1875 C 61 -75.1875 56.429688 -73.15625 53.296875 -69.09375 C 50.160156 -65.03125 47.726562 -58.863281 46 -50.59375 L 46 0 L 10.40625 0 L 10.40625 -106.59375 L 41.390625 -106.59375 L 44.59375 -86.390625 C 46.726562 -93.460938 50.296875 -99.128906 55.296875 -103.390625 C 60.296875 -107.660156 65.726562 -109.796875 71.59375 -109.796875 Z M 71.59375 -109.796875 "/></g></g></g><g fill="#100d1f" fill-opacity="1"><g transform="translate(213.032808, 186.34404)"><g><path d="M 46 -106.59375 L 46 0 L 10.40625 0 L 10.40625 -106.59375 Z M 28.203125 -163.984375 C 34.191406 -163.984375 39.085938 -162.113281 42.890625 -158.375 C 46.691406 -154.644531 48.59375 -149.984375 48.59375 -144.390625 C 48.59375 -138.785156 46.691406 -134.117188 42.890625 -130.390625 C 39.085938 -126.660156 34.191406 -124.796875 28.203125 -124.796875 C 22.203125 -124.796875 17.300781 -126.660156 13.5 -130.390625 C 9.695312 -134.117188 7.796875 -138.785156 7.796875 -144.390625 C 7.796875 -149.984375 9.695312 -154.644531 13.5 -158.375 C 17.300781 -162.113281 22.203125 -163.984375 28.203125 -163.984375 Z M 28.203125 -163.984375 "/></g></g></g><g fill="#100d1f" fill-opacity="1"><g transform="translate(269.42407, 186.34404)"><g><path d="M 105.984375 -106.59375 L 73.390625 0 L 31.203125 0 L -2 -106.59375 L 36.59375 -106.59375 L 52.59375 -26.203125 L 69.796875 -106.59375 Z M 105.984375 -106.59375 "/></g></g></g><g fill="#100d1f" fill-opacity="1"><g transform="translate(373.407964, 186.34404)"><g><path d="M 98.796875 -32.796875 C 98.796875 -28.929688 99.296875 -26.0625 100.296875 -24.1875 C 101.296875 -22.320312 103.0625 -20.925781 105.59375 -20 L 98.390625 3 C 91.585938 2.46875 86.019531 1.070312 81.6875 -1.1875 C 77.351562 -3.457031 73.851562 -7.0625 71.1875 -12 C 64.394531 -1.601562 53.664062 3.59375 39 3.59375 C 28.46875 3.59375 20.035156 0.492188 13.703125 -5.703125 C 7.367188 -11.898438 4.203125 -19.929688 4.203125 -29.796875 C 4.203125 -41.523438 8.535156 -50.519531 17.203125 -56.78125 C 25.867188 -63.050781 38.398438 -66.1875 54.796875 -66.1875 L 64 -66.1875 L 64 -69.796875 C 64 -75.523438 62.796875 -79.421875 60.390625 -81.484375 C 57.992188 -83.554688 53.660156 -84.59375 47.390625 -84.59375 C 44.054688 -84.59375 39.890625 -84.09375 34.890625 -83.09375 C 29.890625 -82.09375 24.789062 -80.726562 19.59375 -79 L 11.796875 -101.984375 C 18.191406 -104.648438 25.054688 -106.679688 32.390625 -108.078125 C 39.722656 -109.484375 46.523438 -110.1875 52.796875 -110.1875 C 68.796875 -110.1875 80.460938 -107.019531 87.796875 -100.6875 C 95.128906 -94.351562 98.796875 -84.65625 98.796875 -71.59375 Z M 49.796875 -21.390625 C 52.734375 -21.390625 55.429688 -22.15625 57.890625 -23.6875 C 60.359375 -25.226562 62.394531 -27.332031 64 -30 L 64 -47.203125 L 58 -47.203125 C 51.59375 -47.203125 46.859375 -46.035156 43.796875 -43.703125 C 40.734375 -41.367188 39.203125 -37.867188 39.203125 -33.203125 C 39.203125 -29.597656 40.132812 -26.726562 42 -24.59375 C 43.863281 -22.457031 46.460938 -21.390625 49.796875 -21.390625 Z M 49.796875 -21.390625 "/></g></g></g><g fill="#100d1f" fill-opacity="1"><g transform="translate(483.39094, 186.34404)"><g/></g></g><g fill="#100d1f" fill-opacity="1"><g transform="translate(528.983877, 186.34404)"><g><path d="M 52.390625 -138.984375 C 74.390625 -138.984375 92.054688 -134.015625 105.390625 -124.078125 C 118.722656 -114.148438 125.390625 -96.125 125.390625 -70 C 125.390625 -23.332031 101.992188 0 55.203125 0 L 10.796875 0 L 10.796875 -138.984375 Z M 47.796875 -112.59375 L 47.796875 -26.390625 L 57.390625 -26.390625 C 67.523438 -26.390625 75.023438 -29.585938 79.890625 -35.984375 C 84.753906 -42.390625 87.1875 -53.726562 87.1875 -70 C 87.1875 -81.195312 86.019531 -89.894531 83.6875 -96.09375 C 81.351562 -102.289062 78.019531 -106.585938 73.6875 -108.984375 C 69.351562 -111.390625 63.859375 -112.59375 57.203125 -112.59375 Z M 47.796875 -112.59375 "/></g></g></g><g fill="#100d1f" fill-opacity="1"><g transform="translate(659.763604, 186.34404)"><g><path d="M 106.984375 -55 C 106.984375 -54.195312 106.785156 -50.195312 106.390625 -43 L 41.203125 -43 C 42.128906 -34.863281 44.425781 -29.296875 48.09375 -26.296875 C 51.757812 -23.296875 56.992188 -21.796875 63.796875 -21.796875 C 67.796875 -21.796875 71.757812 -22.5625 75.6875 -24.09375 C 79.625 -25.625 83.925781 -27.992188 88.59375 -31.203125 L 102.984375 -11.59375 C 97.390625 -6.925781 90.992188 -3.226562 83.796875 -0.5 C 76.597656 2.226562 68.796875 3.59375 60.390625 3.59375 C 42.265625 3.59375 28.5 -1.503906 19.09375 -11.703125 C 9.695312 -21.898438 5 -35.597656 5 -52.796875 C 5 -63.597656 6.960938 -73.332031 10.890625 -82 C 14.828125 -90.664062 20.660156 -97.53125 28.390625 -102.59375 C 36.128906 -107.65625 45.460938 -110.1875 56.390625 -110.1875 C 71.992188 -110.1875 84.328125 -105.351562 93.390625 -95.6875 C 102.453125 -86.019531 106.984375 -72.457031 106.984375 -55 Z M 72 -65 C 71.863281 -72.0625 70.660156 -77.523438 68.390625 -81.390625 C 66.128906 -85.253906 62.332031 -87.1875 57 -87.1875 C 52.0625 -87.1875 48.328125 -85.453125 45.796875 -81.984375 C 43.265625 -78.523438 41.664062 -72.460938 41 -63.796875 L 72 -63.796875 Z M 72 -65 "/></g></g></g><g fill="#100d1f" fill-opacity="1"><g transform="translate(770.746428, 186.34404)"><g><path d="M 105.984375 -106.59375 L 73.390625 0 L 31.203125 0 L -2 -106.59375 L 36.59375 -106.59375 L 52.59375 -26.203125 L 69.796875 -106.59375 Z M 105.984375 -106.59375 "/></g></g></g></g></g><g transform="matrix(1, 0, 0, 1, 380, 1004)"><g clip-path="url(#f32ae96e0f)"><g fill="#100d1f" fill-opacity="1"><g transform="translate(3.34375, 72.533598)"><g><path d="M 20.078125 -55.265625 C 28.660156 -55.265625 35.523438 -53.316406 40.671875 -49.421875 C 45.816406 -45.535156 48.390625 -38.367188 48.390625 -27.921875 C 48.390625 -17.679688 45.851562 -10.46875 40.78125 -6.28125 C 35.71875 -2.09375 29.296875 0 21.515625 0 L 6.484375 0 L 6.484375 -55.265625 Z M 17.03125 -47.34375 L 17.03125 -7.921875 L 22.234375 -7.921875 C 26.929688 -7.921875 30.609375 -9.375 33.265625 -12.28125 C 35.929688 -15.1875 37.265625 -20.398438 37.265625 -27.921875 C 37.265625 -33.140625 36.582031 -37.175781 35.21875 -40.03125 C 33.863281 -42.882812 32.082031 -44.816406 29.875 -45.828125 C 27.664062 -46.835938 25.015625 -47.34375 21.921875 -47.34375 Z M 17.03125 -47.34375 "/></g></g></g><g fill="#100d1f" fill-opacity="1"><g transform="translate(55.163325, 72.533598)"><g><path d="M 16.390625 -42.3125 L 16.390625 0 L 6.15625 0 L 6.15625 -42.3125 Z M 11.203125 -63.75 C 13.117188 -63.75 14.675781 -63.144531 15.875 -61.9375 C 17.070312 -60.738281 17.671875 -59.265625 17.671875 -57.515625 C 17.671875 -55.753906 17.070312 -54.285156 15.875 -53.109375 C 14.675781 -51.929688 13.117188 -51.34375 11.203125 -51.34375 C 9.335938 -51.34375 7.800781 -51.929688 6.59375 -53.109375 C 5.394531 -54.285156 4.796875 -55.753906 4.796875 -57.515625 C 4.796875 -59.265625 5.394531 -60.738281 6.59375 -61.9375 C 7.800781 -63.144531 9.335938 -63.75 11.203125 -63.75 Z M 11.203125 -63.75 "/></g></g></g><g fill="#100d1f" fill-opacity="1"><g transform="translate(77.714409, 72.533598)"><g><path d="M 19.515625 -43.515625 C 25.222656 -43.515625 30.234375 -41.832031 34.546875 -38.46875 L 30.546875 -32.46875 C 26.921875 -34.757812 23.378906 -35.90625 19.921875 -35.90625 C 17.890625 -35.90625 16.3125 -35.519531 15.1875 -34.75 C 14.070312 -33.976562 13.515625 -32.953125 13.515625 -31.671875 C 13.515625 -30.710938 13.753906 -29.910156 14.234375 -29.265625 C 14.710938 -28.628906 15.578125 -28.03125 16.828125 -27.46875 C 18.085938 -26.914062 19.941406 -26.289062 22.390625 -25.59375 C 26.984375 -24.363281 30.382812 -22.734375 32.59375 -20.703125 C 34.800781 -18.679688 35.90625 -15.859375 35.90625 -12.234375 C 35.90625 -8.023438 34.195312 -4.734375 30.78125 -2.359375 C 27.375 0.015625 23.140625 1.203125 18.078125 1.203125 C 14.609375 1.203125 11.445312 0.671875 8.59375 -0.390625 C 5.738281 -1.460938 3.273438 -2.929688 1.203125 -4.796875 L 6.3125 -10.5625 C 10 -7.789062 13.84375 -6.40625 17.84375 -6.40625 C 20.132812 -6.40625 21.957031 -6.859375 23.3125 -7.765625 C 24.675781 -8.671875 25.359375 -9.921875 25.359375 -11.515625 C 25.359375 -12.742188 25.101562 -13.71875 24.59375 -14.4375 C 24.082031 -15.15625 23.175781 -15.796875 21.875 -16.359375 C 20.570312 -16.921875 18.53125 -17.597656 15.75 -18.390625 C 11.4375 -19.566406 8.265625 -21.207031 6.234375 -23.3125 C 4.210938 -25.414062 3.203125 -28.039062 3.203125 -31.1875 C 3.203125 -33.539062 3.878906 -35.648438 5.234375 -37.515625 C 6.597656 -39.378906 8.519531 -40.84375 11 -41.90625 C 13.476562 -42.976562 16.316406 -43.515625 19.515625 -43.515625 Z M 19.515625 -43.515625 "/></g></g></g><g fill="#100d1f" fill-opacity="1"><g transform="translate(115.779378, 72.533598)"><g><path d="M 40.875 -22.15625 C 40.875 -21.625 40.789062 -20.238281 40.625 -18 L 14.078125 -18 C 14.398438 -13.894531 15.46875 -10.960938 17.28125 -9.203125 C 19.09375 -7.441406 21.488281 -6.5625 24.46875 -6.5625 C 26.34375 -6.5625 28.101562 -6.863281 29.75 -7.46875 C 31.40625 -8.082031 33.164062 -9.03125 35.03125 -10.3125 L 39.265625 -4.484375 C 34.578125 -0.691406 29.351562 1.203125 23.59375 1.203125 C 17.144531 1.203125 12.171875 -0.769531 8.671875 -4.71875 C 5.179688 -8.664062 3.4375 -14.050781 3.4375 -20.875 C 3.4375 -25.195312 4.179688 -29.078125 5.671875 -32.515625 C 7.171875 -35.953125 9.332031 -38.644531 12.15625 -40.59375 C 14.976562 -42.539062 18.335938 -43.515625 22.234375 -43.515625 C 28.148438 -43.515625 32.734375 -41.632812 35.984375 -37.875 C 39.242188 -34.113281 40.875 -28.875 40.875 -22.15625 Z M 30.71875 -25.109375 C 30.71875 -32.523438 27.96875 -36.234375 22.46875 -36.234375 C 19.96875 -36.234375 18.007812 -35.3125 16.59375 -33.46875 C 15.1875 -31.632812 14.347656 -28.691406 14.078125 -24.640625 L 30.71875 -24.640625 Z M 30.71875 -25.109375 "/></g></g></g><g fill="#100d1f" fill-opacity="1"><g transform="translate(159.682069, 72.533598)"><g><path d="M 28.71875 -43.515625 C 32.5 -43.515625 35.441406 -42.378906 37.546875 -40.109375 C 39.660156 -37.847656 40.71875 -34.691406 40.71875 -30.640625 L 40.71875 0 L 30.46875 0 L 30.46875 -29.03125 C 30.46875 -31.539062 30.023438 -33.300781 29.140625 -34.3125 C 28.265625 -35.320312 26.976562 -35.828125 25.28125 -35.828125 C 23.519531 -35.828125 21.929688 -35.28125 20.515625 -34.1875 C 19.097656 -33.09375 17.722656 -31.507812 16.390625 -29.4375 L 16.390625 0 L 6.15625 0 L 6.15625 -42.3125 L 15.03125 -42.3125 L 15.84375 -36.796875 C 19.300781 -41.273438 23.59375 -43.515625 28.71875 -43.515625 Z M 28.3125 -51.515625 C 27.195312 -51.515625 26.222656 -51.710938 25.390625 -52.109375 C 24.566406 -52.503906 23.625 -53.050781 22.5625 -53.75 C 21.757812 -54.28125 21.117188 -54.664062 20.640625 -54.90625 C 20.160156 -55.144531 19.648438 -55.265625 19.109375 -55.265625 C 18.203125 -55.265625 17.441406 -54.984375 16.828125 -54.421875 C 16.222656 -53.867188 15.570312 -52.953125 14.875 -51.671875 L 9.359375 -54.390625 C 10.421875 -56.898438 11.75 -58.910156 13.34375 -60.421875 C 14.945312 -61.941406 16.816406 -62.703125 18.953125 -62.703125 C 20.128906 -62.703125 21.128906 -62.515625 21.953125 -62.140625 C 22.785156 -61.773438 23.757812 -61.242188 24.875 -60.546875 C 25.570312 -60.015625 26.171875 -59.628906 26.671875 -59.390625 C 27.179688 -59.148438 27.703125 -59.03125 28.234375 -59.03125 C 29.035156 -59.03125 29.753906 -59.296875 30.390625 -59.828125 C 31.035156 -60.359375 31.726562 -61.238281 32.46875 -62.46875 L 37.90625 -59.75 C 36.84375 -57.1875 35.484375 -55.171875 33.828125 -53.703125 C 32.179688 -52.242188 30.34375 -51.515625 28.3125 -51.515625 Z M 28.3125 -51.515625 "/></g></g></g><g fill="#100d1f" fill-opacity="1"><g transform="translate(206.14375, 72.533598)"><g><path d="M 37.4375 -11.203125 C 37.4375 -9.546875 37.6875 -8.332031 38.1875 -7.5625 C 38.695312 -6.789062 39.507812 -6.191406 40.625 -5.765625 L 38.46875 1.046875 C 36.070312 0.828125 34.113281 0.238281 32.59375 -0.71875 C 31.070312 -1.675781 29.910156 -3.144531 29.109375 -5.125 C 27.671875 -2.988281 25.867188 -1.398438 23.703125 -0.359375 C 21.546875 0.679688 19.140625 1.203125 16.484375 1.203125 C 12.265625 1.203125 8.925781 0.00390625 6.46875 -2.390625 C 4.019531 -4.796875 2.796875 -7.945312 2.796875 -11.84375 C 2.796875 -16.425781 4.460938 -19.929688 7.796875 -22.359375 C 11.128906 -24.785156 15.890625 -26 22.078125 -26 L 27.359375 -26 L 27.359375 -28.390625 C 27.359375 -31.109375 26.726562 -33.015625 25.46875 -34.109375 C 24.21875 -35.203125 22.207031 -35.75 19.4375 -35.75 C 16.34375 -35.75 12.609375 -35.003906 8.234375 -33.515625 L 5.84375 -40.46875 C 11.113281 -42.5 16.234375 -43.515625 21.203125 -43.515625 C 32.023438 -43.515625 37.4375 -38.660156 37.4375 -28.953125 Z M 19.203125 -6.234375 C 22.660156 -6.234375 25.378906 -7.96875 27.359375 -11.4375 L 27.359375 -20 L 23.109375 -20 C 16.503906 -20 13.203125 -17.546875 13.203125 -12.640625 C 13.203125 -10.609375 13.707031 -9.03125 14.71875 -7.90625 C 15.726562 -6.789062 17.222656 -6.234375 19.203125 -6.234375 Z M 19.203125 -6.234375 "/></g></g></g><g fill="#100d1f" fill-opacity="1"><g transform="translate(249.806527, 72.533598)"><g><path d="M 41.75 -59.265625 L 41.75 0 L 32.71875 0 L 32 -5.359375 C 30.664062 -3.328125 28.96875 -1.722656 26.90625 -0.546875 C 24.851562 0.617188 22.523438 1.203125 19.921875 1.203125 C 14.742188 1.203125 10.769531 -0.796875 8 -4.796875 C 5.226562 -8.796875 3.84375 -14.234375 3.84375 -21.109375 C 3.84375 -25.429688 4.535156 -29.285156 5.921875 -32.671875 C 7.304688 -36.054688 9.289062 -38.707031 11.875 -40.625 C 14.457031 -42.550781 17.457031 -43.515625 20.875 -43.515625 C 24.925781 -43.515625 28.472656 -41.992188 31.515625 -38.953125 L 31.515625 -60.390625 Z M 22.796875 -6.5625 C 24.609375 -6.5625 26.207031 -7 27.59375 -7.875 C 28.976562 -8.757812 30.285156 -10.132812 31.515625 -12 L 31.515625 -31.359375 C 30.285156 -32.847656 29.046875 -33.960938 27.796875 -34.703125 C 26.546875 -35.453125 25.09375 -35.828125 23.4375 -35.828125 C 20.71875 -35.828125 18.570312 -34.613281 17 -32.1875 C 15.425781 -29.757812 14.640625 -26.097656 14.640625 -21.203125 C 14.640625 -15.972656 15.332031 -12.222656 16.71875 -9.953125 C 18.101562 -7.691406 20.128906 -6.5625 22.796875 -6.5625 Z M 22.796875 -6.5625 "/></g></g></g><g fill="#100d1f" fill-opacity="1"><g transform="translate(297.707646, 72.533598)"><g><path d="M 37.4375 -11.203125 C 37.4375 -9.546875 37.6875 -8.332031 38.1875 -7.5625 C 38.695312 -6.789062 39.507812 -6.191406 40.625 -5.765625 L 38.46875 1.046875 C 36.070312 0.828125 34.113281 0.238281 32.59375 -0.71875 C 31.070312 -1.675781 29.910156 -3.144531 29.109375 -5.125 C 27.671875 -2.988281 25.867188 -1.398438 23.703125 -0.359375 C 21.546875 0.679688 19.140625 1.203125 16.484375 1.203125 C 12.265625 1.203125 8.925781 0.00390625 6.46875 -2.390625 C 4.019531 -4.796875 2.796875 -7.945312 2.796875 -11.84375 C 2.796875 -16.425781 4.460938 -19.929688 7.796875 -22.359375 C 11.128906 -24.785156 15.890625 -26 22.078125 -26 L 27.359375 -26 L 27.359375 -28.390625 C 27.359375 -31.109375 26.726562 -33.015625 25.46875 -34.109375 C 24.21875 -35.203125 22.207031 -35.75 19.4375 -35.75 C 16.34375 -35.75 12.609375 -35.003906 8.234375 -33.515625 L 5.84375 -40.46875 C 11.113281 -42.5 16.234375 -43.515625 21.203125 -43.515625 C 32.023438 -43.515625 37.4375 -38.660156 37.4375 -28.953125 Z M 19.203125 -6.234375 C 22.660156 -6.234375 25.378906 -7.96875 27.359375 -11.4375 L 27.359375 -20 L 23.109375 -20 C 16.503906 -20 13.203125 -17.546875 13.203125 -12.640625 C 13.203125 -10.609375 13.707031 -9.03125 14.71875 -7.90625 C 15.726562 -6.789062 17.222656 -6.234375 19.203125 -6.234375 Z M 19.203125 -6.234375 "/></g></g></g><g fill="#100d1f" fill-opacity="1"><g transform="translate(341.370423, 72.533598)"><g/></g></g><g fill="#100d1f" fill-opacity="1"><g transform="translate(361.362518, 72.533598)"><g><path d="M 28.078125 -43.515625 C 33.410156 -43.515625 37.351562 -41.566406 39.90625 -37.671875 C 42.46875 -33.773438 43.75 -28.3125 43.75 -21.28125 C 43.75 -16.90625 43.09375 -13.023438 41.78125 -9.640625 C 40.476562 -6.253906 38.5625 -3.597656 36.03125 -1.671875 C 33.5 0.242188 30.5 1.203125 27.03125 1.203125 C 22.550781 1.203125 19.003906 -0.34375 16.390625 -3.4375 L 16.390625 16.3125 L 6.15625 17.4375 L 6.15625 -42.3125 L 15.109375 -42.3125 L 15.671875 -37.109375 C 17.328125 -39.242188 19.222656 -40.84375 21.359375 -41.90625 C 23.492188 -42.976562 25.734375 -43.515625 28.078125 -43.515625 Z M 24.15625 -6.640625 C 30.070312 -6.640625 33.03125 -11.492188 33.03125 -21.203125 C 33.03125 -26.367188 32.363281 -30.097656 31.03125 -32.390625 C 29.695312 -34.679688 27.695312 -35.828125 25.03125 -35.828125 C 23.320312 -35.828125 21.722656 -35.304688 20.234375 -34.265625 C 18.742188 -33.234375 17.460938 -31.835938 16.390625 -30.078125 L 16.390625 -11.03125 C 18.367188 -8.101562 20.957031 -6.640625 24.15625 -6.640625 Z M 24.15625 -6.640625 "/></g></g></g><g fill="#100d1f" fill-opacity="1"><g transform="translate(409.023723, 72.533598)"><g><path d="M 37.4375 -11.203125 C 37.4375 -9.546875 37.6875 -8.332031 38.1875 -7.5625 C 38.695312 -6.789062 39.507812 -6.191406 40.625 -5.765625 L 38.46875 1.046875 C 36.070312 0.828125 34.113281 0.238281 32.59375 -0.71875 C 31.070312 -1.675781 29.910156 -3.144531 29.109375 -5.125 C 27.671875 -2.988281 25.867188 -1.398438 23.703125 -0.359375 C 21.546875 0.679688 19.140625 1.203125 16.484375 1.203125 C 12.265625 1.203125 8.925781 0.00390625 6.46875 -2.390625 C 4.019531 -4.796875 2.796875 -7.945312 2.796875 -11.84375 C 2.796875 -16.425781 4.460938 -19.929688 7.796875 -22.359375 C 11.128906 -24.785156 15.890625 -26 22.078125 -26 L 27.359375 -26 L 27.359375 -28.390625 C 27.359375 -31.109375 26.726562 -33.015625 25.46875 -34.109375 C 24.21875 -35.203125 22.207031 -35.75 19.4375 -35.75 C 16.34375 -35.75 12.609375 -35.003906 8.234375 -33.515625 L 5.84375 -40.46875 C 11.113281 -42.5 16.234375 -43.515625 21.203125 -43.515625 C 32.023438 -43.515625 37.4375 -38.660156 37.4375 -28.953125 Z M 19.203125 -6.234375 C 22.660156 -6.234375 25.378906 -7.96875 27.359375 -11.4375 L 27.359375 -20 L 23.109375 -20 C 16.503906 -20 13.203125 -17.546875 13.203125 -12.640625 C 13.203125 -10.609375 13.707031 -9.03125 14.71875 -7.90625 C 15.726562 -6.789062 17.222656 -6.234375 19.203125 -6.234375 Z M 19.203125 -6.234375 "/></g></g></g><g fill="#100d1f" fill-opacity="1"><g transform="translate(452.6865, 72.533598)"><g><path d="M 27.03125 -43.4375 C 28.582031 -43.4375 30 -43.25 31.28125 -42.875 L 29.515625 -32.953125 C 28.234375 -33.273438 26.976562 -33.4375 25.75 -33.4375 C 23.25 -33.4375 21.273438 -32.539062 19.828125 -30.75 C 18.390625 -28.96875 17.242188 -26.238281 16.390625 -22.5625 L 16.390625 0 L 6.15625 0 L 6.15625 -42.3125 L 15.03125 -42.3125 L 16 -34 C 17.007812 -37.03125 18.472656 -39.359375 20.390625 -40.984375 C 22.316406 -42.617188 24.53125 -43.4375 27.03125 -43.4375 Z M 27.03125 -43.4375 "/></g></g></g><g fill="#100d1f" fill-opacity="1"><g transform="translate(484.19405, 72.533598)"><g><path d="M 37.4375 -11.203125 C 37.4375 -9.546875 37.6875 -8.332031 38.1875 -7.5625 C 38.695312 -6.789062 39.507812 -6.191406 40.625 -5.765625 L 38.46875 1.046875 C 36.070312 0.828125 34.113281 0.238281 32.59375 -0.71875 C 31.070312 -1.675781 29.910156 -3.144531 29.109375 -5.125 C 27.671875 -2.988281 25.867188 -1.398438 23.703125 -0.359375 C 21.546875 0.679688 19.140625 1.203125 16.484375 1.203125 C 12.265625 1.203125 8.925781 0.00390625 6.46875 -2.390625 C 4.019531 -4.796875 2.796875 -7.945312 2.796875 -11.84375 C 2.796875 -16.425781 4.460938 -19.929688 7.796875 -22.359375 C 11.128906 -24.785156 15.890625 -26 22.078125 -26 L 27.359375 -26 L 27.359375 -28.390625 C 27.359375 -31.109375 26.726562 -33.015625 25.46875 -34.109375 C 24.21875 -35.203125 22.207031 -35.75 19.4375 -35.75 C 16.34375 -35.75 12.609375 -35.003906 8.234375 -33.515625 L 5.84375 -40.46875 C 11.113281 -42.5 16.234375 -43.515625 21.203125 -43.515625 C 32.023438 -43.515625 37.4375 -38.660156 37.4375 -28.953125 Z M 19.203125 -6.234375 C 22.660156 -6.234375 25.378906 -7.96875 27.359375 -11.4375 L 27.359375 -20 L 23.109375 -20 C 16.503906 -20 13.203125 -17.546875 13.203125 -12.640625 C 13.203125 -10.609375 13.707031 -9.03125 14.71875 -7.90625 C 15.726562 -6.789062 17.222656 -6.234375 19.203125 -6.234375 Z M 19.203125 -6.234375 "/></g></g></g><g fill="#100d1f" fill-opacity="1"><g transform="translate(527.856827, 72.533598)"><g/></g></g><g fill="#100d1f" fill-opacity="1"><g transform="translate(547.848922, 72.533598)"><g><path d="M 23.203125 -43.515625 C 25.972656 -43.515625 28.460938 -43.113281 30.671875 -42.3125 C 32.890625 -41.507812 34.984375 -40.253906 36.953125 -38.546875 L 32.390625 -32.390625 C 30.953125 -33.460938 29.566406 -34.238281 28.234375 -34.71875 C 26.898438 -35.195312 25.429688 -35.4375 23.828125 -35.4375 C 17.484375 -35.4375 14.3125 -30.609375 14.3125 -20.953125 C 14.3125 -16.046875 15.140625 -12.515625 16.796875 -10.359375 C 18.453125 -8.203125 20.796875 -7.125 23.828125 -7.125 C 25.328125 -7.125 26.703125 -7.363281 27.953125 -7.84375 C 29.203125 -8.320312 30.679688 -9.09375 32.390625 -10.15625 L 36.953125 -3.671875 C 32.953125 -0.421875 28.394531 1.203125 23.28125 1.203125 C 19.226562 1.203125 15.707031 0.3125 12.71875 -1.46875 C 9.726562 -3.257812 7.429688 -5.804688 5.828125 -9.109375 C 4.234375 -12.421875 3.4375 -16.316406 3.4375 -20.796875 C 3.4375 -25.273438 4.234375 -29.234375 5.828125 -32.671875 C 7.429688 -36.109375 9.726562 -38.773438 12.71875 -40.671875 C 15.707031 -42.566406 19.203125 -43.515625 23.203125 -43.515625 Z M 23.203125 -43.515625 "/></g></g></g><g fill="#100d1f" fill-opacity="1"><g transform="translate(586.073833, 72.533598)"><g><path d="M 27.03125 -43.4375 C 28.582031 -43.4375 30 -43.25 31.28125 -42.875 L 29.515625 -32.953125 C 28.234375 -33.273438 26.976562 -33.4375 25.75 -33.4375 C 23.25 -33.4375 21.273438 -32.539062 19.828125 -30.75 C 18.390625 -28.96875 17.242188 -26.238281 16.390625 -22.5625 L 16.390625 0 L 6.15625 0 L 6.15625 -42.3125 L 15.03125 -42.3125 L 16 -34 C 17.007812 -37.03125 18.472656 -39.359375 20.390625 -40.984375 C 22.316406 -42.617188 24.53125 -43.4375 27.03125 -43.4375 Z M 27.03125 -43.4375 "/></g></g></g><g fill="#100d1f" fill-opacity="1"><g transform="translate(617.581383, 72.533598)"><g><path d="M 40.875 -22.15625 C 40.875 -21.625 40.789062 -20.238281 40.625 -18 L 14.078125 -18 C 14.398438 -13.894531 15.46875 -10.960938 17.28125 -9.203125 C 19.09375 -7.441406 21.488281 -6.5625 24.46875 -6.5625 C 26.34375 -6.5625 28.101562 -6.863281 29.75 -7.46875 C 31.40625 -8.082031 33.164062 -9.03125 35.03125 -10.3125 L 39.265625 -4.484375 C 34.578125 -0.691406 29.351562 1.203125 23.59375 1.203125 C 17.144531 1.203125 12.171875 -0.769531 8.671875 -4.71875 C 5.179688 -8.664062 3.4375 -14.050781 3.4375 -20.875 C 3.4375 -25.195312 4.179688 -29.078125 5.671875 -32.515625 C 7.171875 -35.953125 9.332031 -38.644531 12.15625 -40.59375 C 14.976562 -42.539062 18.335938 -43.515625 22.234375 -43.515625 C 28.148438 -43.515625 32.734375 -41.632812 35.984375 -37.875 C 39.242188 -34.113281 40.875 -28.875 40.875 -22.15625 Z M 30.71875 -25.109375 C 30.71875 -32.523438 27.96875 -36.234375 22.46875 -36.234375 C 19.96875 -36.234375 18.007812 -35.3125 16.59375 -33.46875 C 15.1875 -31.632812 14.347656 -28.691406 14.078125 -24.640625 L 30.71875 -24.640625 Z M 30.71875 -25.109375 "/></g></g></g><g fill="#100d1f" fill-opacity="1"><g transform="translate(661.484074, 72.533598)"><g><path d="M 37.4375 -11.203125 C 37.4375 -9.546875 37.6875 -8.332031 38.1875 -7.5625 C 38.695312 -6.789062 39.507812 -6.191406 40.625 -5.765625 L 38.46875 1.046875 C 36.070312 0.828125 34.113281 0.238281 32.59375 -0.71875 C 31.070312 -1.675781 29.910156 -3.144531 29.109375 -5.125 C 27.671875 -2.988281 25.867188 -1.398438 23.703125 -0.359375 C 21.546875 0.679688 19.140625 1.203125 16.484375 1.203125 C 12.265625 1.203125 8.925781 0.00390625 6.46875 -2.390625 C 4.019531 -4.796875 2.796875 -7.945312 2.796875 -11.84375 C 2.796875 -16.425781 4.460938 -19.929688 7.796875 -22.359375 C 11.128906 -24.785156 15.890625 -26 22.078125 -26 L 27.359375 -26 L 27.359375 -28.390625 C 27.359375 -31.109375 26.726562 -33.015625 25.46875 -34.109375 C 24.21875 -35.203125 22.207031 -35.75 19.4375 -35.75 C 16.34375 -35.75 12.609375 -35.003906 8.234375 -33.515625 L 5.84375 -40.46875 C 11.113281 -42.5 16.234375 -43.515625 21.203125 -43.515625 C 32.023438 -43.515625 37.4375 -38.660156 37.4375 -28.953125 Z M 19.203125 -6.234375 C 22.660156 -6.234375 25.378906 -7.96875 27.359375 -11.4375 L 27.359375 -20 L 23.109375 -20 C 16.503906 -20 13.203125 -17.546875 13.203125 -12.640625 C 13.203125 -10.609375 13.707031 -9.03125 14.71875 -7.90625 C 15.726562 -6.789062 17.222656 -6.234375 19.203125 -6.234375 Z M 19.203125 -6.234375 "/></g></g></g><g fill="#100d1f" fill-opacity="1"><g transform="translate(705.146851, 72.533598)"><g><path d="M 27.03125 -43.4375 C 28.582031 -43.4375 30 -43.25 31.28125 -42.875 L 29.515625 -32.953125 C 28.234375 -33.273438 26.976562 -33.4375 25.75 -33.4375 C 23.25 -33.4375 21.273438 -32.539062 19.828125 -30.75 C 18.390625 -28.96875 17.242188 -26.238281 16.390625 -22.5625 L 16.390625 0 L 6.15625 0 L 6.15625 -42.3125 L 15.03125 -42.3125 L 16 -34 C 17.007812 -37.03125 18.472656 -39.359375 20.390625 -40.984375 C 22.316406 -42.617188 24.53125 -43.4375 27.03125 -43.4375 Z M 27.03125 -43.4375 "/></g></g></g></g></g></svg>