<svg xmlns="http://www.w3.org/2000/svg" xmlns:xlink="http://www.w3.org/1999/xlink" width="2000" zoomAndPan="magnify" viewBox="0 0 1500 1499.999933" height="2000" preserveAspectRatio="xMidYMid meet" version="1.0"><defs><g/><clipPath id="76f3a8889d"><path d="M 363 0.359375 L 978.238281 0.359375 L 978.238281 169 L 363 169 Z M 363 0.359375 " clip-rule="nonzero"/></clipPath><clipPath id="d35f4cfdee"><rect x="0" width="616" y="0" height="169"/></clipPath><clipPath id="0958cae96f"><rect x="0" width="583" y="0" height="79"/></clipPath><clipPath id="a5564c6c8d"><path d="M 0.71875 2.417969 L 309 2.417969 L 309 256 L 0.71875 256 Z M 0.71875 2.417969 " clip-rule="nonzero"/></clipPath><clipPath id="dfbbaa2444"><rect x="0" width="979" y="0" height="257"/></clipPath></defs><g transform="matrix(1, 0, 0, 1, 156, 621)"><g clip-path="url(#dfbbaa2444)"><g clip-path="url(#76f3a8889d)"><g transform="matrix(1, 0, 0, 1, 363, 0.000000000000113687)"><g clip-path="url(#d35f4cfdee)"><g fill="#000000" fill-opacity="1"><g transform="translate(0.215672, 129.416564)"><g><path d="M 36.671875 -97.296875 C 52.066406 -97.296875 64.429688 -93.816406 73.765625 -86.859375 C 83.097656 -79.910156 87.765625 -67.289062 87.765625 -49 C 87.765625 -16.332031 71.390625 0 38.640625 0 L 7.5625 0 L 7.5625 -97.296875 Z M 33.453125 -78.8125 L 33.453125 -18.484375 L 40.171875 -18.484375 C 47.265625 -18.484375 52.515625 -20.722656 55.921875 -25.203125 C 59.328125 -29.679688 61.03125 -37.613281 61.03125 -49 C 61.03125 -56.832031 60.210938 -62.914062 58.578125 -67.25 C 56.953125 -71.59375 54.617188 -74.601562 51.578125 -76.28125 C 48.546875 -77.96875 44.695312 -78.8125 40.03125 -78.8125 Z M 33.453125 -78.8125 "/></g></g></g><g fill="#000000" fill-opacity="1"><g transform="translate(91.754978, 129.416564)"><g><path d="M 50.109375 -76.84375 C 52.535156 -76.84375 55.054688 -76.425781 57.671875 -75.59375 L 53.609375 -51.515625 C 51.179688 -52.265625 48.941406 -52.640625 46.890625 -52.640625 C 42.691406 -52.640625 39.492188 -51.210938 37.296875 -48.359375 C 35.109375 -45.515625 33.410156 -41.203125 32.203125 -35.421875 L 32.203125 0 L 7.28125 0 L 7.28125 -74.609375 L 28.984375 -74.609375 L 31.21875 -60.46875 C 32.707031 -65.414062 35.203125 -69.378906 38.703125 -72.359375 C 42.203125 -75.347656 46.003906 -76.84375 50.109375 -76.84375 Z M 50.109375 -76.84375 "/></g></g></g><g fill="#000000" fill-opacity="1"><g transform="translate(148.44218, 129.416564)"><g><path d="M 32.203125 -74.609375 L 32.203125 0 L 7.28125 0 L 7.28125 -74.609375 Z M 19.734375 -114.78125 C 23.941406 -114.78125 27.375 -113.472656 30.03125 -110.859375 C 32.6875 -108.253906 34.015625 -104.988281 34.015625 -101.0625 C 34.015625 -97.144531 32.6875 -93.878906 30.03125 -91.265625 C 27.375 -88.648438 23.941406 -87.34375 19.734375 -87.34375 C 15.535156 -87.34375 12.109375 -88.648438 9.453125 -91.265625 C 6.796875 -93.878906 5.46875 -97.144531 5.46875 -101.0625 C 5.46875 -104.988281 6.796875 -108.253906 9.453125 -110.859375 C 12.109375 -113.472656 15.535156 -114.78125 19.734375 -114.78125 Z M 19.734375 -114.78125 "/></g></g></g><g fill="#000000" fill-opacity="1"><g transform="translate(187.913258, 129.416564)"><g><path d="M 74.1875 -74.609375 L 51.375 0 L 21.84375 0 L -1.40625 -74.609375 L 25.609375 -74.609375 L 36.8125 -18.34375 L 48.859375 -74.609375 Z M 74.1875 -74.609375 "/></g></g></g><g fill="#000000" fill-opacity="1"><g transform="translate(260.696801, 129.416564)"><g><path d="M 69.15625 -22.953125 C 69.15625 -20.242188 69.503906 -18.238281 70.203125 -16.9375 C 70.898438 -15.632812 72.132812 -14.65625 73.90625 -14 L 68.875 2.09375 C 64.113281 1.726562 60.21875 0.753906 57.1875 -0.828125 C 54.15625 -2.421875 51.703125 -4.945312 49.828125 -8.40625 C 45.066406 -1.125 37.554688 2.515625 27.296875 2.515625 C 19.921875 2.515625 14.015625 0.347656 9.578125 -3.984375 C 5.148438 -8.328125 2.9375 -13.953125 2.9375 -20.859375 C 2.9375 -29.066406 5.96875 -35.363281 12.03125 -39.75 C 18.101562 -44.132812 26.878906 -46.328125 38.359375 -46.328125 L 44.796875 -46.328125 L 44.796875 -48.859375 C 44.796875 -52.867188 43.953125 -55.597656 42.265625 -57.046875 C 40.585938 -58.492188 37.554688 -59.21875 33.171875 -59.21875 C 30.835938 -59.21875 27.921875 -58.863281 24.421875 -58.15625 C 20.921875 -57.457031 17.351562 -56.503906 13.71875 -55.296875 L 8.265625 -71.390625 C 12.742188 -73.253906 17.546875 -74.675781 22.671875 -75.65625 C 27.804688 -76.632812 32.566406 -77.125 36.953125 -77.125 C 48.148438 -77.125 56.316406 -74.90625 61.453125 -70.46875 C 66.585938 -66.039062 69.15625 -59.253906 69.15625 -50.109375 Z M 34.859375 -14.984375 C 36.910156 -14.984375 38.796875 -15.519531 40.515625 -16.59375 C 42.242188 -17.664062 43.671875 -19.132812 44.796875 -21 L 44.796875 -33.03125 L 40.59375 -33.03125 C 36.113281 -33.03125 32.800781 -32.210938 30.65625 -30.578125 C 28.507812 -28.953125 27.4375 -26.503906 27.4375 -23.234375 C 27.4375 -20.710938 28.085938 -18.707031 29.390625 -17.21875 C 30.703125 -15.726562 32.523438 -14.984375 34.859375 -14.984375 Z M 34.859375 -14.984375 "/></g></g></g><g fill="#000000" fill-opacity="1"><g transform="translate(337.679407, 129.416564)"><g/></g></g><g fill="#000000" fill-opacity="1"><g transform="translate(369.592213, 129.416564)"><g><path d="M 36.671875 -97.296875 C 52.066406 -97.296875 64.429688 -93.816406 73.765625 -86.859375 C 83.097656 -79.910156 87.765625 -67.289062 87.765625 -49 C 87.765625 -16.332031 71.390625 0 38.640625 0 L 7.5625 0 L 7.5625 -97.296875 Z M 33.453125 -78.8125 L 33.453125 -18.484375 L 40.171875 -18.484375 C 47.265625 -18.484375 52.515625 -20.722656 55.921875 -25.203125 C 59.328125 -29.679688 61.03125 -37.613281 61.03125 -49 C 61.03125 -56.832031 60.210938 -62.914062 58.578125 -67.25 C 56.953125 -71.59375 54.617188 -74.601562 51.578125 -76.28125 C 48.546875 -77.96875 44.695312 -78.8125 40.03125 -78.8125 Z M 33.453125 -78.8125 "/></g></g></g><g fill="#000000" fill-opacity="1"><g transform="translate(461.131519, 129.416564)"><g><path d="M 74.890625 -38.5 C 74.890625 -37.9375 74.75 -35.132812 74.46875 -30.09375 L 28.84375 -30.09375 C 29.488281 -24.40625 31.09375 -20.507812 33.65625 -18.40625 C 36.226562 -16.3125 39.894531 -15.265625 44.65625 -15.265625 C 47.457031 -15.265625 50.234375 -15.800781 52.984375 -16.875 C 55.734375 -17.945312 58.742188 -19.601562 62.015625 -21.84375 L 72.09375 -8.125 C 68.175781 -4.851562 63.695312 -2.257812 58.65625 -0.34375 C 53.613281 1.5625 48.15625 2.515625 42.28125 2.515625 C 29.582031 2.515625 19.941406 -1.050781 13.359375 -8.1875 C 6.785156 -15.320312 3.5 -24.910156 3.5 -36.953125 C 3.5 -44.515625 4.875 -51.328125 7.625 -57.390625 C 10.382812 -63.460938 14.46875 -68.269531 19.875 -71.8125 C 25.289062 -75.351562 31.820312 -77.125 39.46875 -77.125 C 50.394531 -77.125 59.03125 -73.738281 65.375 -66.96875 C 71.71875 -60.207031 74.890625 -50.71875 74.890625 -38.5 Z M 50.390625 -45.5 C 50.296875 -50.445312 49.457031 -54.269531 47.875 -56.96875 C 46.289062 -59.675781 43.628906 -61.03125 39.890625 -61.03125 C 36.441406 -61.03125 33.828125 -59.816406 32.046875 -57.390625 C 30.273438 -54.960938 29.160156 -50.71875 28.703125 -44.65625 L 50.390625 -44.65625 Z M 50.390625 -45.5 "/></g></g></g><g fill="#000000" fill-opacity="1"><g transform="translate(538.813956, 129.416564)"><g><path d="M 74.1875 -74.609375 L 51.375 0 L 21.84375 0 L -1.40625 -74.609375 L 25.609375 -74.609375 L 36.8125 -18.34375 L 48.859375 -74.609375 Z M 74.1875 -74.609375 "/></g></g></g></g></g></g><g transform="matrix(1, 0, 0, 1, 363, 177)"><g clip-path="url(#0958cae96f)"><g fill="#000000" fill-opacity="1"><g transform="translate(0.215672, 60.903241)"><g><path d="M 16.046875 -43.71875 C 22.867188 -43.71875 28.332031 -42.171875 32.4375 -39.078125 C 36.550781 -35.984375 38.609375 -30.304688 38.609375 -22.046875 C 38.609375 -13.960938 36.59375 -8.265625 32.5625 -4.953125 C 28.539062 -1.648438 23.394531 0 17.125 0 L 4.609375 0 L 4.609375 -43.71875 Z M 13.90625 -36.90625 L 13.90625 -6.828125 L 17.6875 -6.828125 C 21.269531 -6.828125 24.039062 -7.929688 26 -10.140625 C 27.957031 -12.347656 28.9375 -16.316406 28.9375 -22.046875 C 28.9375 -26.003906 28.441406 -29.078125 27.453125 -31.265625 C 26.460938 -33.460938 25.144531 -34.953125 23.5 -35.734375 C 21.863281 -36.515625 19.863281 -36.90625 17.5 -36.90625 Z M 13.90625 -36.90625 "/></g></g></g><g fill="#000000" fill-opacity="1"><g transform="translate(41.257063, 60.903241)"><g><path d="M 13.390625 -33.484375 L 13.390625 0 L 4.421875 0 L 4.421875 -33.484375 Z M 8.84375 -50.734375 C 10.445312 -50.734375 11.765625 -50.238281 12.796875 -49.25 C 13.828125 -48.257812 14.34375 -47.007812 14.34375 -45.5 C 14.34375 -43.976562 13.828125 -42.722656 12.796875 -41.734375 C 11.765625 -40.742188 10.445312 -40.25 8.84375 -40.25 C 7.238281 -40.25 5.929688 -40.742188 4.921875 -41.734375 C 3.910156 -42.722656 3.40625 -43.976562 3.40625 -45.5 C 3.40625 -47.007812 3.910156 -48.257812 4.921875 -49.25 C 5.929688 -50.238281 7.238281 -50.734375 8.84375 -50.734375 Z M 8.84375 -50.734375 "/></g></g></g><g fill="#000000" fill-opacity="1"><g transform="translate(59.062739, 60.903241)"><g><path d="M 15.546875 -34.5 C 20.265625 -34.5 24.304688 -33.148438 27.671875 -30.453125 L 24.265625 -25.34375 C 21.441406 -27.101562 18.660156 -27.984375 15.921875 -27.984375 C 14.453125 -27.984375 13.316406 -27.707031 12.515625 -27.15625 C 11.710938 -26.613281 11.3125 -25.878906 11.3125 -24.953125 C 11.3125 -24.285156 11.488281 -23.71875 11.84375 -23.25 C 12.207031 -22.789062 12.882812 -22.347656 13.875 -21.921875 C 14.863281 -21.503906 16.347656 -21 18.328125 -20.40625 C 21.859375 -19.4375 24.488281 -18.140625 26.21875 -16.515625 C 27.945312 -14.898438 28.8125 -12.679688 28.8125 -9.859375 C 28.8125 -7.628906 28.164062 -5.691406 26.875 -4.046875 C 25.59375 -2.398438 23.859375 -1.144531 21.671875 -0.28125 C 19.484375 0.582031 17.039062 1.015625 14.34375 1.015625 C 11.519531 1.015625 8.945312 0.582031 6.625 -0.28125 C 4.3125 -1.144531 2.332031 -2.335938 0.6875 -3.859375 L 5.125 -8.78125 C 7.945312 -6.59375 10.9375 -5.5 14.09375 -5.5 C 15.78125 -5.5 17.117188 -5.820312 18.109375 -6.46875 C 19.097656 -7.125 19.59375 -8.019531 19.59375 -9.15625 C 19.59375 -10.039062 19.398438 -10.734375 19.015625 -11.234375 C 18.640625 -11.742188 17.945312 -12.21875 16.9375 -12.65625 C 15.925781 -13.101562 14.34375 -13.625 12.1875 -14.21875 C 8.820312 -15.144531 6.328125 -16.457031 4.703125 -18.15625 C 3.085938 -19.863281 2.28125 -21.984375 2.28125 -24.515625 C 2.28125 -26.410156 2.828125 -28.113281 3.921875 -29.625 C 5.015625 -31.144531 6.5625 -32.335938 8.5625 -33.203125 C 10.5625 -34.066406 12.890625 -34.5 15.546875 -34.5 Z M 15.546875 -34.5 "/></g></g></g><g fill="#000000" fill-opacity="1"><g transform="translate(89.307088, 60.903241)"><g><path d="M 32.734375 -17.5 C 32.734375 -17.082031 32.671875 -15.925781 32.546875 -14.03125 L 11.625 -14.03125 C 11.914062 -11 12.734375 -8.847656 14.078125 -7.578125 C 15.429688 -6.316406 17.269531 -5.6875 19.59375 -5.6875 C 21.019531 -5.6875 22.363281 -5.914062 23.625 -6.375 C 24.894531 -6.84375 26.265625 -7.582031 27.734375 -8.59375 L 31.46875 -3.53125 C 27.71875 -0.5 23.484375 1.015625 18.765625 1.015625 C 13.503906 1.015625 9.460938 -0.5625 6.640625 -3.71875 C 3.816406 -6.882812 2.40625 -11.164062 2.40625 -16.5625 C 2.40625 -19.96875 3.003906 -23.03125 4.203125 -25.75 C 5.398438 -28.46875 7.144531 -30.601562 9.4375 -32.15625 C 11.738281 -33.71875 14.46875 -34.5 17.625 -34.5 C 22.382812 -34.5 26.09375 -33.003906 28.75 -30.015625 C 31.40625 -27.023438 32.734375 -22.851562 32.734375 -17.5 Z M 23.828125 -20.03125 C 23.828125 -25.59375 21.820312 -28.375 17.8125 -28.375 C 15.957031 -28.375 14.515625 -27.6875 13.484375 -26.3125 C 12.453125 -24.945312 11.832031 -22.726562 11.625 -19.65625 L 23.828125 -19.65625 Z M 23.828125 -20.03125 "/></g></g></g><g fill="#000000" fill-opacity="1"><g transform="translate(124.097579, 60.903241)"><g><path d="M 23.125 -34.5 C 26.070312 -34.5 28.367188 -33.601562 30.015625 -31.8125 C 31.660156 -30.019531 32.484375 -27.546875 32.484375 -24.390625 L 32.484375 0 L 23.5 0 L 23.5 -22.875 C 23.5 -24.6875 23.191406 -25.957031 22.578125 -26.6875 C 21.972656 -27.425781 21.0625 -27.796875 19.84375 -27.796875 C 18.570312 -27.796875 17.421875 -27.40625 16.390625 -26.625 C 15.359375 -25.851562 14.359375 -24.6875 13.390625 -23.125 L 13.390625 0 L 4.421875 0 L 4.421875 -33.484375 L 12.1875 -33.484375 L 12.890625 -29.25 C 14.273438 -30.976562 15.800781 -32.285156 17.46875 -33.171875 C 19.132812 -34.054688 21.019531 -34.5 23.125 -34.5 Z M 22.296875 -40.4375 C 21.410156 -40.4375 20.640625 -40.582031 19.984375 -40.875 C 19.335938 -41.175781 18.570312 -41.597656 17.6875 -42.140625 C 17.132812 -42.566406 16.660156 -42.875 16.265625 -43.0625 C 15.867188 -43.25 15.457031 -43.34375 15.03125 -43.34375 C 14.351562 -43.34375 13.757812 -43.109375 13.25 -42.640625 C 12.75 -42.179688 12.226562 -41.46875 11.6875 -40.5 L 7.078125 -42.78125 C 7.910156 -44.84375 9 -46.523438 10.34375 -47.828125 C 11.695312 -49.140625 13.21875 -49.796875 14.90625 -49.796875 C 15.875 -49.796875 16.691406 -49.632812 17.359375 -49.3125 C 18.035156 -49 18.796875 -48.566406 19.640625 -48.015625 C 20.191406 -47.640625 20.65625 -47.359375 21.03125 -47.171875 C 21.414062 -46.984375 21.816406 -46.890625 22.234375 -46.890625 C 22.910156 -46.890625 23.488281 -47.109375 23.96875 -47.546875 C 24.457031 -47.992188 24.992188 -48.703125 25.578125 -49.671875 L 30.203125 -47.390625 C 29.359375 -45.242188 28.257812 -43.546875 26.90625 -42.296875 C 25.5625 -41.054688 24.023438 -40.4375 22.296875 -40.4375 Z M 22.296875 -40.4375 "/></g></g></g><g fill="#000000" fill-opacity="1"><g transform="translate(160.655999, 60.903241)"><g><path d="M 30.015625 -9.28125 C 30.015625 -7.976562 30.203125 -7.019531 30.578125 -6.40625 C 30.960938 -5.800781 31.597656 -5.351562 32.484375 -5.0625 L 30.578125 0.890625 C 28.597656 0.710938 26.988281 0.25 25.75 -0.5 C 24.507812 -1.257812 23.550781 -2.441406 22.875 -4.046875 C 20.6875 -0.671875 17.335938 1.015625 12.828125 1.015625 C 9.492188 1.015625 6.847656 0.0546875 4.890625 -1.859375 C 2.929688 -3.773438 1.953125 -6.273438 1.953125 -9.359375 C 1.953125 -13.015625 3.28125 -15.8125 5.9375 -17.75 C 8.59375 -19.6875 12.40625 -20.65625 17.375 -20.65625 L 21.234375 -20.65625 L 21.234375 -22.3125 C 21.234375 -24.375 20.769531 -25.800781 19.84375 -26.59375 C 18.914062 -27.394531 17.378906 -27.796875 15.234375 -27.796875 C 12.867188 -27.796875 9.914062 -27.207031 6.375 -26.03125 L 4.359375 -32.03125 C 8.523438 -33.675781 12.65625 -34.5 16.75 -34.5 C 21.289062 -34.5 24.632812 -33.519531 26.78125 -31.5625 C 28.9375 -29.601562 30.015625 -26.6875 30.015625 -22.8125 Z M 15.296875 -5.4375 C 17.816406 -5.4375 19.796875 -6.675781 21.234375 -9.15625 L 21.234375 -15.546875 L 18.265625 -15.546875 C 13.421875 -15.546875 11 -13.734375 11 -10.109375 C 11 -8.640625 11.363281 -7.492188 12.09375 -6.671875 C 12.832031 -5.847656 13.898438 -5.4375 15.296875 -5.4375 Z M 15.296875 -5.4375 "/></g></g></g><g fill="#000000" fill-opacity="1"><g transform="translate(195.193896, 60.903241)"><g><path d="M 33.421875 -46.828125 L 33.421875 0 L 25.53125 0 L 25.015625 -4.109375 C 22.660156 -0.691406 19.460938 1.015625 15.421875 1.015625 C 11.285156 1.015625 8.132812 -0.570312 5.96875 -3.75 C 3.800781 -6.9375 2.71875 -11.269531 2.71875 -16.75 C 2.71875 -20.195312 3.273438 -23.257812 4.390625 -25.9375 C 5.503906 -28.613281 7.09375 -30.707031 9.15625 -32.21875 C 11.226562 -33.738281 13.609375 -34.5 16.296875 -34.5 C 19.421875 -34.5 22.140625 -33.382812 24.453125 -31.15625 L 24.453125 -47.828125 Z M 18.078125 -5.6875 C 19.378906 -5.6875 20.535156 -6.007812 21.546875 -6.65625 C 22.554688 -7.3125 23.523438 -8.335938 24.453125 -9.734375 L 24.453125 -24.703125 C 23.566406 -25.753906 22.671875 -26.539062 21.765625 -27.0625 C 20.859375 -27.59375 19.816406 -27.859375 18.640625 -27.859375 C 16.578125 -27.859375 14.960938 -26.953125 13.796875 -25.140625 C 12.640625 -23.335938 12.0625 -20.539062 12.0625 -16.75 C 12.0625 -12.738281 12.578125 -9.890625 13.609375 -8.203125 C 14.648438 -6.523438 16.140625 -5.6875 18.078125 -5.6875 Z M 18.078125 -5.6875 "/></g></g></g><g fill="#000000" fill-opacity="1"><g transform="translate(233.015148, 60.903241)"><g><path d="M 30.015625 -9.28125 C 30.015625 -7.976562 30.203125 -7.019531 30.578125 -6.40625 C 30.960938 -5.800781 31.597656 -5.351562 32.484375 -5.0625 L 30.578125 0.890625 C 28.597656 0.710938 26.988281 0.25 25.75 -0.5 C 24.507812 -1.257812 23.550781 -2.441406 22.875 -4.046875 C 20.6875 -0.671875 17.335938 1.015625 12.828125 1.015625 C 9.492188 1.015625 6.847656 0.0546875 4.890625 -1.859375 C 2.929688 -3.773438 1.953125 -6.273438 1.953125 -9.359375 C 1.953125 -13.015625 3.28125 -15.8125 5.9375 -17.75 C 8.59375 -19.6875 12.40625 -20.65625 17.375 -20.65625 L 21.234375 -20.65625 L 21.234375 -22.3125 C 21.234375 -24.375 20.769531 -25.800781 19.84375 -26.59375 C 18.914062 -27.394531 17.378906 -27.796875 15.234375 -27.796875 C 12.867188 -27.796875 9.914062 -27.207031 6.375 -26.03125 L 4.359375 -32.03125 C 8.523438 -33.675781 12.65625 -34.5 16.75 -34.5 C 21.289062 -34.5 24.632812 -33.519531 26.78125 -31.5625 C 28.9375 -29.601562 30.015625 -26.6875 30.015625 -22.8125 Z M 15.296875 -5.4375 C 17.816406 -5.4375 19.796875 -6.675781 21.234375 -9.15625 L 21.234375 -15.546875 L 18.265625 -15.546875 C 13.421875 -15.546875 11 -13.734375 11 -10.109375 C 11 -8.640625 11.363281 -7.492188 12.09375 -6.671875 C 12.832031 -5.847656 13.898438 -5.4375 15.296875 -5.4375 Z M 15.296875 -5.4375 "/></g></g></g><g fill="#000000" fill-opacity="1"><g transform="translate(267.553046, 60.903241)"><g/></g></g><g fill="#000000" fill-opacity="1"><g transform="translate(282.959354, 60.903241)"><g><path d="M 22.5 -34.5 C 26.707031 -34.5 29.832031 -32.953125 31.875 -29.859375 C 33.914062 -26.765625 34.9375 -22.414062 34.9375 -16.8125 C 34.9375 -13.394531 34.410156 -10.335938 33.359375 -7.640625 C 32.304688 -4.953125 30.78125 -2.835938 28.78125 -1.296875 C 26.78125 0.242188 24.410156 1.015625 21.671875 1.015625 C 18.265625 1.015625 15.503906 -0.1875 13.390625 -2.59375 L 13.390625 12.890625 L 4.421875 13.90625 L 4.421875 -33.484375 L 12.328125 -33.484375 L 12.765625 -29.578125 C 14.023438 -31.210938 15.507812 -32.441406 17.21875 -33.265625 C 18.925781 -34.085938 20.6875 -34.5 22.5 -34.5 Z M 19.015625 -5.6875 C 23.398438 -5.6875 25.59375 -9.375 25.59375 -16.75 C 25.59375 -20.789062 25.109375 -23.648438 24.140625 -25.328125 C 23.171875 -27.015625 21.695312 -27.859375 19.71875 -27.859375 C 18.445312 -27.859375 17.273438 -27.46875 16.203125 -26.6875 C 15.128906 -25.914062 14.191406 -24.875 13.390625 -23.5625 L 13.390625 -8.96875 C 14.828125 -6.78125 16.703125 -5.6875 19.015625 -5.6875 Z M 19.015625 -5.6875 "/></g></g></g><g fill="#000000" fill-opacity="1"><g transform="translate(320.591184, 60.903241)"><g><path d="M 30.015625 -9.28125 C 30.015625 -7.976562 30.203125 -7.019531 30.578125 -6.40625 C 30.960938 -5.800781 31.597656 -5.351562 32.484375 -5.0625 L 30.578125 0.890625 C 28.597656 0.710938 26.988281 0.25 25.75 -0.5 C 24.507812 -1.257812 23.550781 -2.441406 22.875 -4.046875 C 20.6875 -0.671875 17.335938 1.015625 12.828125 1.015625 C 9.492188 1.015625 6.847656 0.0546875 4.890625 -1.859375 C 2.929688 -3.773438 1.953125 -6.273438 1.953125 -9.359375 C 1.953125 -13.015625 3.28125 -15.8125 5.9375 -17.75 C 8.59375 -19.6875 12.40625 -20.65625 17.375 -20.65625 L 21.234375 -20.65625 L 21.234375 -22.3125 C 21.234375 -24.375 20.769531 -25.800781 19.84375 -26.59375 C 18.914062 -27.394531 17.378906 -27.796875 15.234375 -27.796875 C 12.867188 -27.796875 9.914062 -27.207031 6.375 -26.03125 L 4.359375 -32.03125 C 8.523438 -33.675781 12.65625 -34.5 16.75 -34.5 C 21.289062 -34.5 24.632812 -33.519531 26.78125 -31.5625 C 28.9375 -29.601562 30.015625 -26.6875 30.015625 -22.8125 Z M 15.296875 -5.4375 C 17.816406 -5.4375 19.796875 -6.675781 21.234375 -9.15625 L 21.234375 -15.546875 L 18.265625 -15.546875 C 13.421875 -15.546875 11 -13.734375 11 -10.109375 C 11 -8.640625 11.363281 -7.492188 12.09375 -6.671875 C 12.832031 -5.847656 13.898438 -5.4375 15.296875 -5.4375 Z M 15.296875 -5.4375 "/></g></g></g><g fill="#000000" fill-opacity="1"><g transform="translate(355.129081, 60.903241)"><g><path d="M 21.734375 -34.4375 C 22.742188 -34.4375 23.859375 -34.269531 25.078125 -33.9375 L 23.5625 -25.28125 C 22.382812 -25.570312 21.394531 -25.71875 20.59375 -25.71875 C 18.613281 -25.71875 17.078125 -25.019531 15.984375 -23.625 C 14.890625 -22.238281 14.023438 -20.132812 13.390625 -17.3125 L 13.390625 0 L 4.421875 0 L 4.421875 -33.484375 L 12.1875 -33.484375 L 13.015625 -26.984375 C 13.816406 -29.335938 14.984375 -31.164062 16.515625 -32.46875 C 18.054688 -33.78125 19.796875 -34.4375 21.734375 -34.4375 Z M 21.734375 -34.4375 "/></g></g></g><g fill="#000000" fill-opacity="1"><g transform="translate(380.195895, 60.903241)"><g><path d="M 30.015625 -9.28125 C 30.015625 -7.976562 30.203125 -7.019531 30.578125 -6.40625 C 30.960938 -5.800781 31.597656 -5.351562 32.484375 -5.0625 L 30.578125 0.890625 C 28.597656 0.710938 26.988281 0.25 25.75 -0.5 C 24.507812 -1.257812 23.550781 -2.441406 22.875 -4.046875 C 20.6875 -0.671875 17.335938 1.015625 12.828125 1.015625 C 9.492188 1.015625 6.847656 0.0546875 4.890625 -1.859375 C 2.929688 -3.773438 1.953125 -6.273438 1.953125 -9.359375 C 1.953125 -13.015625 3.28125 -15.8125 5.9375 -17.75 C 8.59375 -19.6875 12.40625 -20.65625 17.375 -20.65625 L 21.234375 -20.65625 L 21.234375 -22.3125 C 21.234375 -24.375 20.769531 -25.800781 19.84375 -26.59375 C 18.914062 -27.394531 17.378906 -27.796875 15.234375 -27.796875 C 12.867188 -27.796875 9.914062 -27.207031 6.375 -26.03125 L 4.359375 -32.03125 C 8.523438 -33.675781 12.65625 -34.5 16.75 -34.5 C 21.289062 -34.5 24.632812 -33.519531 26.78125 -31.5625 C 28.9375 -29.601562 30.015625 -26.6875 30.015625 -22.8125 Z M 15.296875 -5.4375 C 17.816406 -5.4375 19.796875 -6.675781 21.234375 -9.15625 L 21.234375 -15.546875 L 18.265625 -15.546875 C 13.421875 -15.546875 11 -13.734375 11 -10.109375 C 11 -8.640625 11.363281 -7.492188 12.09375 -6.671875 C 12.832031 -5.847656 13.898438 -5.4375 15.296875 -5.4375 Z M 15.296875 -5.4375 "/></g></g></g><g fill="#000000" fill-opacity="1"><g transform="translate(414.733792, 60.903241)"><g/></g></g><g fill="#000000" fill-opacity="1"><g transform="translate(430.140101, 60.903241)"><g><path d="M 18.390625 -34.5 C 20.617188 -34.5 22.628906 -34.171875 24.421875 -33.515625 C 26.210938 -32.867188 27.910156 -31.847656 29.515625 -30.453125 L 25.59375 -25.15625 C 24.5 -25.988281 23.4375 -26.59375 22.40625 -26.96875 C 21.375 -27.351562 20.242188 -27.546875 19.015625 -27.546875 C 14.253906 -27.546875 11.875 -23.882812 11.875 -16.5625 C 11.875 -12.851562 12.484375 -10.195312 13.703125 -8.59375 C 14.929688 -6.988281 16.679688 -6.1875 18.953125 -6.1875 C 20.128906 -6.1875 21.203125 -6.363281 22.171875 -6.71875 C 23.140625 -7.082031 24.28125 -7.6875 25.59375 -8.53125 L 29.515625 -2.90625 C 26.304688 -0.289062 22.640625 1.015625 18.515625 1.015625 C 15.222656 1.015625 12.363281 0.300781 9.9375 -1.125 C 7.519531 -2.5625 5.660156 -4.597656 4.359375 -7.234375 C 3.054688 -9.867188 2.40625 -12.953125 2.40625 -16.484375 C 2.40625 -20.023438 3.054688 -23.15625 4.359375 -25.875 C 5.660156 -28.59375 7.519531 -30.707031 9.9375 -32.21875 C 12.363281 -33.738281 15.179688 -34.5 18.390625 -34.5 Z M 18.390625 -34.5 "/></g></g></g><g fill="#000000" fill-opacity="1"><g transform="translate(460.321324, 60.903241)"><g><path d="M 21.734375 -34.4375 C 22.742188 -34.4375 23.859375 -34.269531 25.078125 -33.9375 L 23.5625 -25.28125 C 22.382812 -25.570312 21.394531 -25.71875 20.59375 -25.71875 C 18.613281 -25.71875 17.078125 -25.019531 15.984375 -23.625 C 14.890625 -22.238281 14.023438 -20.132812 13.390625 -17.3125 L 13.390625 0 L 4.421875 0 L 4.421875 -33.484375 L 12.1875 -33.484375 L 13.015625 -26.984375 C 13.816406 -29.335938 14.984375 -31.164062 16.515625 -32.46875 C 18.054688 -33.78125 19.796875 -34.4375 21.734375 -34.4375 Z M 21.734375 -34.4375 "/></g></g></g><g fill="#000000" fill-opacity="1"><g transform="translate(485.388138, 60.903241)"><g><path d="M 32.734375 -17.5 C 32.734375 -17.082031 32.671875 -15.925781 32.546875 -14.03125 L 11.625 -14.03125 C 11.914062 -11 12.734375 -8.847656 14.078125 -7.578125 C 15.429688 -6.316406 17.269531 -5.6875 19.59375 -5.6875 C 21.019531 -5.6875 22.363281 -5.914062 23.625 -6.375 C 24.894531 -6.84375 26.265625 -7.582031 27.734375 -8.59375 L 31.46875 -3.53125 C 27.71875 -0.5 23.484375 1.015625 18.765625 1.015625 C 13.503906 1.015625 9.460938 -0.5625 6.640625 -3.71875 C 3.816406 -6.882812 2.40625 -11.164062 2.40625 -16.5625 C 2.40625 -19.96875 3.003906 -23.03125 4.203125 -25.75 C 5.398438 -28.46875 7.144531 -30.601562 9.4375 -32.15625 C 11.738281 -33.71875 14.46875 -34.5 17.625 -34.5 C 22.382812 -34.5 26.09375 -33.003906 28.75 -30.015625 C 31.40625 -27.023438 32.734375 -22.851562 32.734375 -17.5 Z M 23.828125 -20.03125 C 23.828125 -25.59375 21.820312 -28.375 17.8125 -28.375 C 15.957031 -28.375 14.515625 -27.6875 13.484375 -26.3125 C 12.453125 -24.945312 11.832031 -22.726562 11.625 -19.65625 L 23.828125 -19.65625 Z M 23.828125 -20.03125 "/></g></g></g><g fill="#000000" fill-opacity="1"><g transform="translate(520.178629, 60.903241)"><g><path d="M 30.015625 -9.28125 C 30.015625 -7.976562 30.203125 -7.019531 30.578125 -6.40625 C 30.960938 -5.800781 31.597656 -5.351562 32.484375 -5.0625 L 30.578125 0.890625 C 28.597656 0.710938 26.988281 0.25 25.75 -0.5 C 24.507812 -1.257812 23.550781 -2.441406 22.875 -4.046875 C 20.6875 -0.671875 17.335938 1.015625 12.828125 1.015625 C 9.492188 1.015625 6.847656 0.0546875 4.890625 -1.859375 C 2.929688 -3.773438 1.953125 -6.273438 1.953125 -9.359375 C 1.953125 -13.015625 3.28125 -15.8125 5.9375 -17.75 C 8.59375 -19.6875 12.40625 -20.65625 17.375 -20.65625 L 21.234375 -20.65625 L 21.234375 -22.3125 C 21.234375 -24.375 20.769531 -25.800781 19.84375 -26.59375 C 18.914062 -27.394531 17.378906 -27.796875 15.234375 -27.796875 C 12.867188 -27.796875 9.914062 -27.207031 6.375 -26.03125 L 4.359375 -32.03125 C 8.523438 -33.675781 12.65625 -34.5 16.75 -34.5 C 21.289062 -34.5 24.632812 -33.519531 26.78125 -31.5625 C 28.9375 -29.601562 30.015625 -26.6875 30.015625 -22.8125 Z M 15.296875 -5.4375 C 17.816406 -5.4375 19.796875 -6.675781 21.234375 -9.15625 L 21.234375 -15.546875 L 18.265625 -15.546875 C 13.421875 -15.546875 11 -13.734375 11 -10.109375 C 11 -8.640625 11.363281 -7.492188 12.09375 -6.671875 C 12.832031 -5.847656 13.898438 -5.4375 15.296875 -5.4375 Z M 15.296875 -5.4375 "/></g></g></g><g fill="#000000" fill-opacity="1"><g transform="translate(554.716527, 60.903241)"><g><path d="M 21.734375 -34.4375 C 22.742188 -34.4375 23.859375 -34.269531 25.078125 -33.9375 L 23.5625 -25.28125 C 22.382812 -25.570312 21.394531 -25.71875 20.59375 -25.71875 C 18.613281 -25.71875 17.078125 -25.019531 15.984375 -23.625 C 14.890625 -22.238281 14.023438 -20.132812 13.390625 -17.3125 L 13.390625 0 L 4.421875 0 L 4.421875 -33.484375 L 12.1875 -33.484375 L 13.015625 -26.984375 C 13.816406 -29.335938 14.984375 -31.164062 16.515625 -32.46875 C 18.054688 -33.78125 19.796875 -34.4375 21.734375 -34.4375 Z M 21.734375 -34.4375 "/></g></g></g></g></g><g clip-path="url(#a5564c6c8d)"><path fill="#0061a6" d="M 298.480469 79.871094 C 292.105469 64.789062 282.980469 51.25 271.359375 39.636719 C 259.742188 28.019531 246.203125 18.824219 231.125 12.449219 C 215.496094 5.835938 198.914062 2.417969 181.835938 2.417969 L 32.671875 2.417969 L 64.460938 57.800781 L 0.769531 57.789062 L 114.070312 255.546875 L 181.835938 255.546875 C 198.914062 255.546875 215.5 252.300781 231.125 245.695312 C 246.203125 239.320312 259.742188 230.246094 271.359375 218.628906 C 282.972656 207.015625 292.105469 193.5 298.480469 178.421875 C 305.089844 162.792969 308.441406 146.222656 308.441406 129.144531 C 308.441406 112.066406 305.089844 95.5 298.480469 79.871094 Z M 181.835938 200.164062 L 170.667969 200.164062 L 170.667969 242.796875 L 64.5 57.800781 L 181.835938 57.800781 C 221.128906 57.800781 253.097656 89.691406 253.097656 128.984375 C 253.089844 168.273438 221.125 200.164062 181.835938 200.164062 Z M 181.835938 200.164062 " fill-opacity="1" fill-rule="nonzero"/></g></g></g></svg>